<?xml version="1.0" standalone="no"?><!DOCTYPE svg PUBLIC "-//W3C//DTD SVG 1.1//EN" "http://www.w3.org/Graphics/SVG/1.1/DTD/svg11.dtd"><svg t="1568871406467" class="icon" viewBox="0 0 1024 1024" version="1.1" xmlns="http://www.w3.org/2000/svg" p-id="3954" xmlns:xlink="http://www.w3.org/1999/xlink" width="200" height="200"><defs><style type="text/css"></style></defs><path d="M469.333333 580.266667l-98.133333-98.133334c-17.066667-17.066667-42.666667-17.066667-59.733333 0-17.066667 17.066667-17.066667 42.666667 0 59.733334l128 128c8.533333 8.533333 17.066667 12.8 29.866666 12.8s21.333333-4.266667 29.866667-12.8l213.333333-298.666667c17.066667-17.066667 17.066667-42.666667 0-59.733333-17.066667-17.066667-42.666667-17.066667-59.733333 0L469.333333 580.266667z" p-id="3955" fill="#a5a5a5"></path><path d="M853.333333 576V166.4l-341.333333-76.8-341.333333 76.8v413.866667c0 140.8 106.666667 260.266667 341.333333 354.133333 234.666667-98.133333 341.333333-213.333333 341.333333-358.4z m-768 0V98.133333L512 0l426.666667 98.133333v477.866667c0 192-140.8 337.066667-426.666667 448-285.866667-106.666667-426.666667-256-426.666667-448z" p-id="3956" fill="#a5a5a5"></path></svg>